<svg width="44" height="21" viewBox="0 0 44 21" fill="none" xmlns="http://www.w3.org/2000/svg">
<g filter="url(#filter0_d_173_467)">
<path d="M1 2.82143L2 17H10.1724H14.0345L19.3448 18.8214H26.5862L32.8621 17.5H35.2759L42 17L43 1H37.2069H32.8621L26.5862 2.82143L19.3448 1L14.0345 2.82143L10.1724 1H5.34483L1 2.82143Z" fill="url(#paint0_linear_173_467)" shape-rendering="crispEdges"/>
<path d="M1 2.82143L2 17H10.1724H14.0345L19.3448 18.8214H26.5862L32.8621 17.5H35.2759L42 17L43 1H37.2069H32.8621L26.5862 2.82143L19.3448 1L14.0345 2.82143L10.1724 1H5.34483L1 2.82143Z" stroke="black" stroke-opacity="0.03" shape-rendering="crispEdges"/>
</g>
<defs>
<filter id="filter0_d_173_467" x="0.476074" y="0.479004" width="43.0562" height="19.8423" filterUnits="userSpaceOnUse" color-interpolation-filters="sRGB">
<feFlood flood-opacity="0" result="BackgroundImageFix"/>
<feColorMatrix in="SourceAlpha" type="matrix" values="0 0 0 0 0 0 0 0 0 0 0 0 0 0 0 0 0 0 127 0" result="hardAlpha"/>
<feOffset dy="1"/>
<feComposite in2="hardAlpha" operator="out"/>
<feColorMatrix type="matrix" values="0 0 0 0 0 0 0 0 0 0 0 0 0 0 0 0 0 0 0.1 0"/>
<feBlend mode="normal" in2="BackgroundImageFix" result="effect1_dropShadow_173_467"/>
<feBlend mode="normal" in="SourceGraphic" in2="effect1_dropShadow_173_467" result="shape"/>
</filter>
<linearGradient id="paint0_linear_173_467" x1="22" y1="1" x2="22" y2="18" gradientUnits="userSpaceOnUse">
<stop stop-color="white"/>
<stop offset="0.229167" stop-color="white"/>
<stop offset="0.541667" stop-color="#F7F7F7"/>
<stop offset="0.8125" stop-color="white"/>
<stop offset="1" stop-color="white"/>
</linearGradient>
</defs>
</svg>
