<svg width="71" height="3" viewBox="0 0 71 3" fill="none" xmlns="http://www.w3.org/2000/svg">
<path d="M1.0625 1.99976C3.3433 1.99976 5.6902 1.87476 8 1.87476C11.8542 1.87476 15.7083 1.87476 19.5625 1.87476C21.7384 1.87476 23.9123 1.8162 26.0833 1.67338C27.6536 1.57007 29.2086 1.43726 30.7847 1.43726C31.1749 1.43726 31.5553 1.37476 31.941 1.37476C32.4654 1.37476 32.9854 1.43726 33.5139 1.43726C36.3741 1.43726 39.2562 1.30253 42.1111 1.42338C44.6374 1.53031 47.1585 1.56226 49.6875 1.56226C51.2527 1.56226 52.8108 1.6642 54.375 1.71851C56.2598 1.78396 58.149 1.74976 60.0347 1.74976C61.1377 1.74976 62.2407 1.74976 63.3438 1.74976C64.2846 1.74976 65.264 1.66873 66.2014 1.76365C66.6566 1.80975 67.2009 1.75889 67.6389 1.88865C68.279 2.07832 68.9324 1.93726 69.5625 1.93726" stroke="#CECECE" stroke-width="2" stroke-linecap="round"/>
</svg>
